<?xml version="1.0" encoding="utf-8"?>
<!-- Generator: Adobe Illustrator 16.0.0, SVG Export Plug-In . SVG Version: 6.00 Build 0)  -->
<!DOCTYPE svg PUBLIC "-//W3C//DTD SVG 1.1//EN" "http://www.w3.org/Graphics/SVG/1.1/DTD/svg11.dtd">
<svg version="1.1" id="Layer_1" xmlns="http://www.w3.org/2000/svg" xmlns:xlink="http://www.w3.org/1999/xlink" x="0px" y="0px"
	 width="173px" height="24px" viewBox="0 0 173 24" enable-background="new 0 0 173 24" xml:space="preserve">
<g>
	<path fill="#CB4781" d="M47.5,10.069c-0.025,0-0.05-0.004-0.074-0.01C46.063,9.674,45.111,8.417,45.111,7
		c0-1.752,1.426-3.177,3.177-3.177c1.536,0,2.85,1.095,3.125,2.603c0.027,0.147-0.071,0.29-0.219,0.316
		c-0.149,0.026-0.29-0.071-0.317-0.219c-0.229-1.25-1.317-2.156-2.59-2.156c-1.451,0-2.632,1.181-2.632,2.632
		c0,1.174,0.789,2.217,1.918,2.535c0.145,0.041,0.229,0.191,0.188,0.335C47.728,9.99,47.619,10.069,47.5,10.069z"/>
	<path fill="#CB4781" d="M47.517,8.781c-1.232,0-2.235-1.003-2.235-2.235c0-1.233,1.003-2.235,2.235-2.235
		c1.233,0,2.235,1.002,2.235,2.235C49.752,7.778,48.75,8.781,47.517,8.781z M47.517,4.855c-0.932,0-1.69,0.759-1.69,1.691
		c0,0.933,0.758,1.69,1.69,1.69s1.691-0.758,1.691-1.69C49.208,5.614,48.449,4.855,47.517,4.855z"/>
	<path fill="#CB4781" d="M47.539,7.499c-0.487,0-0.885-0.396-0.885-0.885c0-0.488,0.397-0.885,0.885-0.885
		c0.488,0,0.885,0.397,0.885,0.885C48.424,7.103,48.027,7.499,47.539,7.499z M47.539,6.274c-0.188,0-0.34,0.152-0.34,0.34
		c0,0.187,0.153,0.34,0.34,0.34c0.188,0,0.341-0.153,0.341-0.34C47.88,6.426,47.727,6.274,47.539,6.274z"/>
	<path fill="#CB4781" d="M53.901,20.177c-0.007,0-0.013,0-0.021,0c-7.534-0.562-11.345-6.376-11.367-6.435
		c-0.096-0.24-0.018-0.461,0-0.504c0.948-2.172,2.597-4.028,2.667-4.105c0.169-0.191,0.343-0.38,0.515-0.562
		c0.104-0.109,0.275-0.113,0.385-0.011c0.109,0.104,0.114,0.277,0.01,0.386c-0.168,0.176-0.337,0.361-0.503,0.549
		c-0.017,0.019-1.663,1.871-2.571,3.952c0,0.004-0.01,0.047,0,0.082c0.161,0.251,3.756,5.572,10.906,6.104
		c0.149,0.011,0.262,0.142,0.251,0.291C54.162,20.068,54.043,20.177,53.901,20.177z"/>
	<path fill="#CB4781" d="M50.623,5.492c-0.104,0-0.202-0.058-0.248-0.158c-0.063-0.136-0.003-0.298,0.133-0.362
		c2.026-0.932,3.359-0.836,3.416-0.831c0.149,0.012,0.261,0.144,0.249,0.293s-0.141,0.263-0.293,0.25
		c-0.015-0.002-1.262-0.083-3.144,0.784C50.699,5.485,50.66,5.492,50.623,5.492z"/>
	<path fill="#CB4781" d="M53.901,16.91c-3.039,0-5.342-1.216-7.024-2.102c-0.44-0.232-0.821-0.432-1.166-0.586
		c-1.566-0.699-2.763-0.187-2.774-0.181c-0.138,0.062-0.298-0.002-0.359-0.139c-0.061-0.139,0.001-0.299,0.139-0.358
		c0.058-0.026,1.433-0.615,3.217,0.181c0.36,0.161,0.767,0.376,1.197,0.603c1.632,0.859,3.867,2.036,6.771,2.036
		c0.15,0,0.272,0.121,0.272,0.272C54.174,16.787,54.052,16.91,53.901,16.91z"/>
	<path fill="#CB4781" d="M52.691,14.263c-0.4,0-0.726-0.327-0.726-0.728s0.326-0.726,0.726-0.726c0.4,0,0.726,0.325,0.726,0.726
		S53.091,14.263,52.691,14.263z M52.691,13.354c-0.1,0-0.182,0.082-0.182,0.182c0,0.101,0.082,0.182,0.182,0.182
		c0.1,0,0.181-0.081,0.181-0.182C52.872,13.436,52.791,13.354,52.691,13.354z"/>
	<path fill="#CB4781" d="M60.341,10.069c-0.119,0-0.229-0.079-0.262-0.199c-0.041-0.144,0.043-0.294,0.188-0.335
		c1.129-0.318,1.917-1.36,1.917-2.535c0-1.451-1.181-2.632-2.633-2.632c-1.272,0-2.361,0.906-2.589,2.156
		c-0.027,0.148-0.17,0.245-0.317,0.219c-0.148-0.027-0.246-0.169-0.219-0.316c0.275-1.508,1.589-2.603,3.125-2.603
		c1.752,0,3.177,1.425,3.177,3.177c0,1.417-0.952,2.675-2.315,3.059C60.39,10.065,60.365,10.069,60.341,10.069z"/>
	<path fill="#CB4781" d="M60.324,8.781c-1.233,0-2.235-1.003-2.235-2.235c0-1.233,1.002-2.235,2.235-2.235
		c1.232,0,2.235,1.002,2.235,2.235C62.559,7.778,61.556,8.781,60.324,8.781z M60.324,4.855c-0.932,0-1.691,0.759-1.691,1.691
		c0,0.933,0.759,1.69,1.691,1.69c0.933,0,1.691-0.758,1.691-1.69C62.015,5.614,61.256,4.855,60.324,4.855z"/>
	<path fill="#CB4781" d="M60.301,7.499c-0.488,0-0.885-0.396-0.885-0.885c0-0.488,0.396-0.885,0.885-0.885
		c0.488,0,0.885,0.397,0.885,0.885C61.186,7.103,60.789,7.499,60.301,7.499z M60.301,6.274c-0.188,0-0.34,0.152-0.34,0.34
		c0,0.187,0.152,0.34,0.34,0.34s0.341-0.153,0.341-0.34C60.642,6.426,60.489,6.274,60.301,6.274z"/>
	<path fill="#CB4781" d="M53.938,20.177c-0.141,0-0.261-0.108-0.271-0.253c-0.011-0.149,0.102-0.28,0.251-0.291
		c7.149-0.531,10.745-5.851,10.906-6.104c0.009-0.035-0.001-0.08-0.005-0.096c-0.904-2.067-2.549-3.919-2.565-3.938
		c-0.167-0.188-0.337-0.373-0.504-0.549c-0.104-0.109-0.099-0.282,0.01-0.386c0.109-0.103,0.282-0.098,0.385,0.011
		c0.172,0.181,0.345,0.37,0.516,0.562c0.069,0.077,1.719,1.933,2.664,4.097c0.02,0.051,0.099,0.271,0.003,0.512
		c-0.023,0.059-3.833,5.873-11.368,6.435C53.953,20.177,53.945,20.177,53.938,20.177z"/>
	<path fill="#CB4781" d="M57.218,5.492c-0.039,0-0.077-0.007-0.114-0.024c-1.884-0.868-3.132-0.785-3.145-0.784
		c-0.148,0.01-0.28-0.101-0.292-0.25c-0.012-0.149,0.1-0.28,0.249-0.292c0.055-0.005,1.389-0.101,3.415,0.831
		c0.137,0.063,0.197,0.226,0.134,0.362C57.42,5.435,57.321,5.492,57.218,5.492z"/>
	<path fill="#CB4781" d="M53.939,16.91c-0.15,0-0.272-0.123-0.272-0.273c0-0.151,0.122-0.272,0.272-0.272
		c2.904,0,5.139-1.177,6.771-2.036c0.43-0.227,0.836-0.441,1.197-0.603c1.785-0.796,3.159-0.207,3.217-0.181
		c0.137,0.06,0.2,0.22,0.139,0.358c-0.061,0.137-0.221,0.198-0.358,0.139c-0.021-0.01-1.228-0.509-2.775,0.181
		c-0.345,0.154-0.725,0.354-1.165,0.586C59.282,15.694,56.978,16.91,53.939,16.91z"/>
	<path fill="#CB4781" d="M55.149,14.263c-0.4,0-0.726-0.327-0.726-0.728s0.326-0.726,0.726-0.726s0.727,0.325,0.727,0.726
		S55.55,14.263,55.149,14.263z M55.149,13.354c-0.1,0-0.182,0.082-0.182,0.182c0,0.101,0.082,0.182,0.182,0.182
		s0.182-0.081,0.182-0.182C55.331,13.436,55.25,13.354,55.149,13.354z"/>
</g>
<g>
	<path fill="#CB4781" d="M134.5,17.326h-0.094c-0.284,0-0.46-0.208-0.52-0.33c-0.186-0.354-0.356-0.37-0.508-0.385
		c-0.054-0.006-0.109-0.012-0.167-0.031c-0.247-0.086-0.305-0.339-0.3-0.476c0-0.227,0.174-0.373,0.283-0.426
		c0.313-0.169,0.893-0.197,1.211-0.2c0.001,0,0.001,0,0.001,0c0.133,0,0.24,0.107,0.241,0.238c0.001,0.133-0.105,0.241-0.238,0.242
		c-0.455,0.003-0.836,0.059-0.991,0.144c-0.005,0.003-0.011,0.005-0.016,0.008c-0.001,0.001-0.012,0.01-0.015,0.014
		c0.001,0.001,0.002,0.003,0.003,0.006c0.011,0.001,0.022,0.002,0.035,0.003c0.188,0.02,0.581,0.058,0.888,0.647
		c0.002,0.003,0.037,0.065,0.092,0.065h0.094c0.134,0,0.24,0.107,0.24,0.24S134.634,17.326,134.5,17.326z"/>
	<path fill="#CB4781" d="M131.639,13.488c-0.478,0-0.865-0.389-0.865-0.865c0-0.247,0.104-0.481,0.288-0.646
		c0.159-0.142,0.363-0.221,0.577-0.221c0.477,0,0.865,0.389,0.865,0.867C132.504,13.1,132.115,13.488,131.639,13.488z
		 M131.639,12.236c-0.095,0-0.187,0.035-0.258,0.099c-0.082,0.073-0.128,0.178-0.128,0.288c0,0.213,0.173,0.385,0.386,0.385
		s0.385-0.172,0.385-0.385C132.023,12.41,131.852,12.236,131.639,12.236z"/>
	<path fill="#CB4781" d="M130.427,22.551c-0.129,0-0.212-0.09-0.234-0.117c-0.021-0.025-0.035-0.055-0.044-0.085
		c-0.461-1.636-2.032-3.405-2.049-3.423c-1.027-1.141-1.735-2.327-1.844-4.412c-0.113-2.172,1.25-4.297,1.649-4.87
		c-2.175-2.979-1.901-5.515-1.89-5.624c0.014-0.104,0.093-0.189,0.196-0.208c0.104-0.019,0.208,0.033,0.256,0.127
		c0.406,0.79,1.208,1.211,2.771,1.454c1.197,0.187,1.819,0.981,2.06,1.38c0.813-0.407,1.725-0.648,2.716-0.719
		c0.006-0.001,0.011-0.001,0.018-0.001h0.377c0.133,0,0.24,0.108,0.24,0.24c0,0.133-0.107,0.24-0.24,0.24h-0.369
		c-1.006,0.073-1.923,0.333-2.724,0.773c-0.06,0.032-0.13,0.039-0.194,0.017c-0.063-0.022-0.115-0.07-0.143-0.132
		c-0.019-0.044-0.502-1.119-1.813-1.322c-1.003-0.156-1.999-0.404-2.669-1.078c0.072,0.951,0.421,2.746,1.897,4.708
		c0.064,0.085,0.064,0.203,0,0.289c-0.018,0.023-1.78,2.391-1.66,4.702c0.102,1.943,0.762,3.051,1.723,4.115
		c0.064,0.071,1.465,1.649,2.046,3.278c1.033-1.188,1.588-2.451,1.876-3.318c0.041-0.127,0.178-0.195,0.303-0.153
		c0.126,0.042,0.194,0.178,0.153,0.303c-0.317,0.956-0.943,2.369-2.134,3.668c-0.018,0.019-0.029,0.032-0.038,0.042
		c-0.052,0.075-0.129,0.121-0.216,0.127C130.44,22.551,130.434,22.551,130.427,22.551z"/>
	<path fill="#CB4781" d="M133.061,18.405c-0.039,0-0.079-0.001-0.118-0.003c-0.918-0.051-1.551-0.759-1.506-1.683
		c0-0.013,0.012-0.521,0.408-0.988c0.16-0.188,0.674-0.885,0.674-2.078c0-1.291-0.787-1.399-0.794-1.4
		c-0.132-0.016-0.227-0.136-0.211-0.267s0.136-0.225,0.267-0.209c0.013,0.001,1.218,0.166,1.218,1.877
		c0,1.319-0.549,2.108-0.785,2.386c-0.284,0.335-0.296,0.692-0.296,0.695c-0.033,0.678,0.389,1.152,1.052,1.188
		c0.578,0.03,1.188-0.254,1.227-0.861c0.008-0.133,0.121-0.233,0.254-0.225c0.132,0.008,0.232,0.122,0.224,0.254
		C134.626,17.855,133.94,18.405,133.061,18.405z"/>
	<path fill="#CB4781" d="M134.429,19.677c-0.818,0-1.425-0.207-1.804-0.613c-0.425-0.454-0.392-0.988-0.391-1.011
		c0.009-0.133,0.122-0.231,0.256-0.223c0.132,0.01,0.23,0.123,0.223,0.254c-0.001,0.02-0.013,0.362,0.269,0.659
		c0.286,0.3,0.772,0.453,1.447,0.453c0.132,0,0.24,0.108,0.24,0.24S134.561,19.677,134.429,19.677z"/>
	<path fill="#CB4781" d="M130.424,22.391c-0.006,0-0.012,0-0.017-0.001c-0.133-0.01-0.232-0.124-0.223-0.257
		c0.086-1.203-0.28-2.738-0.98-4.105c-0.804-1.57-1.187-3.877-0.127-5.23c0.995-1.273,2.556-1.044,2.622-1.033
		c0.132,0.021,0.221,0.144,0.2,0.274c-0.021,0.131-0.145,0.22-0.274,0.2c-0.058-0.008-1.352-0.19-2.17,0.855
		c-0.889,1.136-0.583,3.231,0.176,4.716c0.738,1.441,1.125,3.071,1.032,4.359C130.654,22.294,130.549,22.391,130.424,22.391z"/>
	<path fill="#CB4781" d="M134.416,11.653c-0.133,0-0.239-0.107-0.239-0.239V7.821c0-0.133,0.106-0.24,0.239-0.24
		s0.239,0.107,0.239,0.24v3.593C134.655,11.546,134.549,11.653,134.416,11.653z"/>
	<path fill="#CB4781" d="M132.771,11.932c-0.061,0-0.12-0.022-0.166-0.066c-0.016-0.016-1.558-1.547,0.235-3.692
		c0.085-0.102,0.236-0.116,0.338-0.031s0.115,0.236,0.03,0.338c-1.5,1.794-0.321,2.99-0.271,3.04
		c0.095,0.093,0.097,0.245,0.005,0.339C132.896,11.907,132.833,11.932,132.771,11.932z"/>
	<path fill="#CB4781" d="M128.202,9.882c-0.052,0-0.103-0.017-0.146-0.051c-0.104-0.083-0.124-0.233-0.041-0.337
		c0.038-0.05,0.888-1.13,1.688-1.748c-0.375-0.369-1.397-1.222-3.359-1.862c-0.125-0.041-0.194-0.176-0.153-0.302
		c0.042-0.126,0.177-0.194,0.304-0.154c2.715,0.887,3.718,2.155,3.759,2.208c0.041,0.053,0.058,0.12,0.047,0.186
		c-0.011,0.066-0.049,0.125-0.104,0.161c-0.792,0.522-1.794,1.795-1.804,1.808C128.345,9.851,128.274,9.882,128.202,9.882z"/>
	<path fill="#CB4781" d="M126.229,4.358c-0.125,0-0.23-0.097-0.238-0.224c-0.004-0.051-0.075-1.252,0.293-2.512
		c0.037-0.127,0.17-0.201,0.298-0.164c0.127,0.038,0.2,0.171,0.163,0.298c-0.344,1.176-0.276,2.335-0.275,2.347
		c0.009,0.132-0.092,0.246-0.225,0.255C126.239,4.358,126.234,4.358,126.229,4.358z"/>
	<path fill="#CB4781" d="M134.416,17.326h-0.095c-0.133,0-0.239-0.107-0.239-0.24s0.106-0.24,0.239-0.24h0.095
		c0.054,0,0.088-0.059,0.088-0.06c0.311-0.596,0.702-0.634,0.892-0.653c0.012-0.001,0.022-0.002,0.033-0.003
		c0.001-0.005,0.002-0.009,0.002-0.009c0-0.001-0.011-0.01-0.018-0.014c-0.167-0.09-0.547-0.146-1.002-0.148
		c-0.132-0.001-0.239-0.109-0.237-0.242c0.001-0.131,0.107-0.238,0.24-0.238l0,0c0.319,0.003,0.898,0.031,1.213,0.2
		c0.108,0.053,0.283,0.199,0.283,0.435c0.004,0.128-0.054,0.381-0.301,0.467c-0.057,0.02-0.112,0.025-0.167,0.031
		c-0.151,0.015-0.322,0.031-0.51,0.392C134.876,17.118,134.699,17.326,134.416,17.326z"/>
	<path fill="#CB4781" d="M137.184,13.488c-0.477,0-0.866-0.389-0.866-0.865c0-0.478,0.39-0.867,0.866-0.867
		c0.213,0,0.418,0.079,0.576,0.221c0.185,0.165,0.289,0.399,0.289,0.646C138.049,13.1,137.66,13.488,137.184,13.488z
		 M137.184,12.236c-0.213,0-0.386,0.173-0.386,0.387c0,0.213,0.173,0.385,0.386,0.385c0.212,0,0.386-0.172,0.386-0.385
		c0-0.109-0.048-0.215-0.129-0.289C137.369,12.271,137.278,12.236,137.184,12.236z"/>
	<path fill="#CB4781" d="M138.395,22.551c-0.007,0-0.014,0-0.02,0c-0.087-0.006-0.165-0.052-0.217-0.127
		c-0.008-0.01-0.021-0.023-0.037-0.042c-1.191-1.299-1.817-2.712-2.134-3.668c-0.041-0.125,0.026-0.261,0.152-0.303
		s0.261,0.026,0.304,0.153c0.287,0.867,0.842,2.131,1.876,3.318c0.58-1.629,1.981-3.207,2.045-3.277
		c0.961-1.065,1.622-2.173,1.724-4.116c0.12-2.316-1.643-4.679-1.66-4.702c-0.064-0.086-0.064-0.204-0.001-0.289
		c1.483-1.969,1.83-3.76,1.899-4.709c-0.67,0.676-1.666,0.924-2.67,1.08c-1.321,0.205-1.811,1.311-1.814,1.322
		c-0.026,0.062-0.078,0.11-0.143,0.132c-0.063,0.022-0.135,0.016-0.193-0.017c-0.802-0.44-1.718-0.701-2.725-0.773h-0.368
		c-0.133,0-0.24-0.107-0.24-0.24c0-0.132,0.107-0.24,0.24-0.24h0.377c0.007,0,0.012,0,0.018,0.001
		c0.991,0.071,1.902,0.312,2.714,0.719c0.242-0.399,0.864-1.193,2.061-1.38c1.563-0.242,2.366-0.664,2.771-1.454
		c0.049-0.094,0.152-0.146,0.256-0.127c0.104,0.019,0.184,0.103,0.196,0.208c0.013,0.108,0.286,2.644-1.89,5.624
		c0.399,0.573,1.764,2.698,1.65,4.87c-0.108,2.085-0.816,3.271-1.846,4.412c-0.016,0.018-1.587,1.788-2.047,3.423
		c-0.009,0.03-0.023,0.06-0.044,0.085C138.606,22.461,138.523,22.551,138.395,22.551z"/>
	<path fill="#CB4781" d="M135.762,18.405c-0.881,0-1.565-0.55-1.613-1.314c-0.008-0.132,0.093-0.246,0.225-0.254
		c0.133-0.01,0.246,0.092,0.254,0.225c0.038,0.607,0.646,0.892,1.227,0.861c0.662-0.036,1.085-0.511,1.052-1.18
		c0-0.011-0.013-0.37-0.294-0.701c-0.238-0.28-0.787-1.069-0.787-2.389c0-1.711,1.205-1.876,1.217-1.877
		c0.132-0.016,0.251,0.078,0.268,0.209c0.015,0.131-0.078,0.25-0.208,0.266c-0.038,0.006-0.798,0.135-0.798,1.401
		c0,1.193,0.514,1.89,0.672,2.075c0.398,0.47,0.411,0.979,0.411,1c0.045,0.915-0.588,1.623-1.506,1.674
		C135.84,18.404,135.8,18.405,135.762,18.405z"/>
	<path fill="#CB4781" d="M134.393,19.677c-0.132,0-0.239-0.108-0.239-0.24s0.107-0.24,0.239-0.24c0.68,0,1.169-0.155,1.454-0.461
		c0.278-0.298,0.263-0.646,0.262-0.649c-0.009-0.133,0.091-0.246,0.224-0.256c0.134-0.009,0.246,0.09,0.256,0.223
		c0.001,0.022,0.033,0.557-0.391,1.011C135.817,19.47,135.211,19.677,134.393,19.677z"/>
	<path fill="#CB4781" d="M138.397,22.391c-0.124,0-0.229-0.097-0.239-0.223c-0.092-1.288,0.294-2.918,1.032-4.359
		c0.76-1.484,1.063-3.58,0.177-4.716c-0.819-1.047-2.116-0.863-2.171-0.855c-0.132,0.02-0.253-0.069-0.273-0.201
		c-0.021-0.13,0.068-0.252,0.2-0.273c0.065-0.01,1.626-0.24,2.622,1.033c1.059,1.354,0.676,3.66-0.127,5.23
		c-0.7,1.367-1.067,2.902-0.98,4.105c0.009,0.133-0.09,0.247-0.223,0.257C138.409,22.391,138.403,22.391,138.397,22.391z"/>
	<path fill="#CB4781" d="M136.051,11.932c-0.063,0-0.125-0.024-0.173-0.074c-0.092-0.094-0.089-0.246,0.005-0.338
		c0.053-0.051,1.229-1.246-0.27-3.04c-0.085-0.102-0.07-0.253,0.031-0.338s0.253-0.071,0.337,0.031
		c1.794,2.146,0.251,3.677,0.235,3.692C136.171,11.91,136.111,11.932,136.051,11.932z"/>
	<path fill="#CB4781" d="M140.619,9.882c-0.071,0-0.143-0.032-0.189-0.092c-0.01-0.013-1.011-1.285-1.804-1.808
		c-0.055-0.037-0.094-0.095-0.104-0.161c-0.012-0.065,0.006-0.133,0.046-0.186c0.042-0.053,1.045-1.321,3.76-2.208
		c0.126-0.04,0.262,0.028,0.303,0.154s-0.027,0.261-0.153,0.302c-1.972,0.644-2.987,1.493-3.36,1.861
		c0.801,0.619,1.651,1.699,1.69,1.749c0.082,0.104,0.063,0.255-0.041,0.337C140.723,9.866,140.67,9.882,140.619,9.882z"/>
	<path fill="#CB4781" d="M142.593,4.358c-0.005,0-0.011,0-0.016,0c-0.132-0.009-0.232-0.123-0.225-0.255
		c0.001-0.011,0.068-1.171-0.274-2.347c-0.037-0.127,0.035-0.26,0.162-0.298c0.129-0.037,0.261,0.037,0.299,0.164
		c0.367,1.259,0.297,2.461,0.293,2.512C142.824,4.261,142.718,4.358,142.593,4.358z"/>
</g>
<g>
	<path fill="#CB4781" d="M90.263,9.154L90.263,9.154c-0.172,0-0.282-0.1-0.321-0.143c-0.371-0.361-0.427-0.919-0.275-1.314
		c-0.069,0.005-0.142,0.007-0.211,0.007c-1.71,0-3.102-1.392-3.102-3.101s1.392-3.101,3.102-3.101s3.1,1.392,3.1,3.101
		c0,0.212-0.03,0.409-0.061,0.6l-0.012,0.074c-0.342,2.168-1.812,3.662-1.875,3.724C90.473,9.129,90.346,9.154,90.263,9.154z
		 M89.967,7.181c0.103,0,0.195,0.051,0.245,0.138c0.09,0.152,0.016,0.331-0.069,0.485c-0.125,0.225-0.102,0.629,0.126,0.859
		c0.002-0.002,0.004-0.003,0.005-0.005c0.009-0.01,1.421-1.445,1.736-3.456l0.012-0.076c0.028-0.18,0.056-0.351,0.056-0.524
		c0-1.446-1.177-2.623-2.622-2.623c-1.447,0-2.623,1.177-2.623,2.623c0,1.446,1.176,2.623,2.623,2.623
		c0.148,0,0.299-0.012,0.445-0.038C89.917,7.185,89.94,7.181,89.967,7.181z"/>
	<path fill="#CB4781" d="M86.65,4.386c-0.04,0-0.081-0.01-0.118-0.031c-0.115-0.065-0.155-0.211-0.09-0.327
		c0.069-0.12,0.694-1.172,1.489-0.949c0.088,0.025,0.179,0.054,0.271,0.082c0.548,0.173,1.066,0.335,1.604-0.114
		c1.188-0.997,1.944-0.46,2.29-0.051c0.085,0.101,0.071,0.252-0.03,0.337c-0.101,0.085-0.25,0.072-0.335-0.029
		c-0.265-0.313-0.72-0.643-1.617,0.108c-0.739,0.619-1.469,0.39-2.056,0.206c-0.087-0.027-0.173-0.055-0.257-0.078
		c-0.373-0.104-0.817,0.504-0.943,0.725C86.814,4.342,86.734,4.386,86.65,4.386z"/>
	<path fill="#CB4781" d="M94.545,19.644c-0.095,0-0.185-0.057-0.222-0.15c-0.808-2.01-1.429-2.743-1.435-2.75
		c-0.004-0.004-0.007-0.009-0.01-0.014c-0.277-0.368-0.596-0.65-0.933-0.948c-0.644-0.569-1.375-1.217-1.968-2.631
		c-0.906-2.162-0.017-4.284,0.021-4.373c0.053-0.122,0.192-0.178,0.314-0.126c0.121,0.052,0.178,0.192,0.126,0.314
		c-0.009,0.02-0.845,2.03-0.019,4c0.55,1.313,1.207,1.895,1.843,2.457c0.354,0.312,0.688,0.608,0.994,1.015
		c0.074,0.088,0.701,0.864,1.509,2.877c0.05,0.122-0.011,0.263-0.134,0.312C94.604,19.638,94.575,19.644,94.545,19.644z"/>
	<path fill="#CB4781" d="M92.963,13.225c-0.382,0-0.69-0.311-0.69-0.691c0-0.382,0.309-0.691,0.69-0.691s0.691,0.31,0.691,0.691
		C93.654,12.914,93.345,13.225,92.963,13.225z M92.963,12.319c-0.117,0-0.213,0.098-0.213,0.214s0.096,0.212,0.213,0.212
		c0.118,0,0.213-0.096,0.213-0.212S93.081,12.319,92.963,12.319z"/>
	<path fill="#CB4781" d="M93.648,13.677c-0.025,0-0.051-0.005-0.074-0.013c-0.127-0.041-0.195-0.177-0.154-0.302
		c0.173-0.525-0.276-1.027-0.281-1.033c-0.506-0.556-1.199-0.289-1.206-0.286c-0.123,0.049-0.262-0.01-0.312-0.133
		c-0.049-0.123,0.012-0.262,0.134-0.311c0.041-0.017,1.009-0.392,1.738,0.406c0.024,0.028,0.642,0.709,0.382,1.504
		C93.842,13.612,93.748,13.677,93.648,13.677z"/>
	<path fill="#CB4781" d="M95.968,21.048c-1.074,0-1.605-0.437-1.622-1.334c-0.008-0.368,0.182-0.727,0.516-0.981
		c0.006-0.005,0.347-0.265,0.342-0.675c-0.007-0.494-0.139-0.868-0.139-0.872c-0.046-0.125,0.02-0.261,0.144-0.307
		c0.124-0.043,0.263,0.021,0.307,0.145c0.006,0.018,0.159,0.449,0.167,1.029c0.008,0.66-0.513,1.047-0.535,1.063
		c-0.211,0.161-0.326,0.371-0.323,0.589c0.011,0.533,0.206,0.864,1.145,0.864c0.132,0,0.239,0.106,0.239,0.239
		C96.207,20.94,96.1,21.048,95.968,21.048z"/>
	<path fill="#CB4781" d="M95.422,20.135c-0.013,0-0.025-0.001-0.037-0.003c-0.131-0.021-0.217-0.142-0.199-0.271
		c0.007-0.065,0-0.283-0.388-0.358c-0.129-0.026-0.214-0.151-0.188-0.282c0.024-0.129,0.15-0.213,0.279-0.188
		c0.7,0.138,0.81,0.649,0.77,0.9C95.639,20.051,95.538,20.135,95.422,20.135z"/>
	<path fill="#CB4781" d="M95.96,9.948L95.96,9.948c-0.132,0-0.239-0.107-0.239-0.239c0-2.127-1.458-4.316-1.695-4.658
		C93.549,5.12,93,5.309,92.407,5.713c-0.109,0.074-0.259,0.046-0.333-0.063s-0.045-0.258,0.063-0.333
		c2.196-1.497,3.893-0.381,3.963-0.333c0.066,0.045,0.106,0.12,0.106,0.199l-0.008,4.523c0,0,0,0,0,0.001l0,0
		C96.199,9.841,96.092,9.948,95.96,9.948z M94.584,5.023c0.275,0.424,0.771,1.257,1.141,2.268l0.002-1.971
		C95.546,5.224,95.143,5.047,94.584,5.023z"/>
	<path fill="#CB4781" d="M94.001,18.38c-0.074,0-0.147-0.034-0.196-0.1c-0.116-0.164-2.93-4.007-7.301-2.491
		c-0.126,0.044-0.262-0.023-0.305-0.148c-0.043-0.123,0.022-0.26,0.147-0.304c4.713-1.635,7.817,2.622,7.849,2.665
		c0.076,0.107,0.052,0.257-0.057,0.334C94.097,18.365,94.049,18.38,94.001,18.38z"/>
	<path fill="#CB4781" d="M94.319,19.205c-0.059,0-0.117-0.021-0.163-0.064c-0.157-0.146-3.89-3.549-7.588-0.781
		c-0.105,0.079-0.255,0.058-0.334-0.049c-0.08-0.105-0.058-0.255,0.048-0.334c4.02-3.009,8.16,0.775,8.201,0.813
		c0.096,0.091,0.102,0.241,0.012,0.338C94.447,19.179,94.383,19.205,94.319,19.205z"/>
	<path fill="#CB4781" d="M87.328,22.314c-0.031,0-0.063-0.006-0.094-0.02c-0.121-0.052-0.178-0.192-0.126-0.314
		c0.692-1.61,1.704-2.646,3.013-3.08c2.231-0.737,4.489,0.547,4.584,0.603c0.114,0.066,0.153,0.212,0.087,0.325
		c-0.066,0.115-0.214,0.155-0.327,0.088c-0.021-0.013-2.172-1.232-4.196-0.56c-1.171,0.39-2.086,1.335-2.721,2.812
		C87.51,22.261,87.421,22.314,87.328,22.314z"/>
	<path fill="#CB4781" d="M101.686,9.154c-0.084,0-0.21-0.025-0.34-0.148c-0.067-0.067-1.539-1.56-1.88-3.729l-0.011-0.074
		c-0.031-0.191-0.063-0.388-0.063-0.6c0-1.709,1.392-3.101,3.102-3.101s3.101,1.392,3.101,3.101s-1.391,3.101-3.101,3.101
		c-0.069,0-0.141-0.002-0.21-0.007c0.149,0.395,0.096,0.953-0.276,1.314C101.968,9.054,101.857,9.154,101.686,9.154z M102.493,1.98
		c-1.445,0-2.623,1.177-2.623,2.623c0,0.173,0.027,0.344,0.056,0.524l0.013,0.076c0.315,2.01,1.727,3.446,1.741,3.459v0.001
		c0.228-0.229,0.25-0.634,0.126-0.859c-0.085-0.154-0.159-0.333-0.07-0.485c0.051-0.087,0.144-0.138,0.247-0.138
		c0.024,0,0.049,0.003,0.065,0.007c0.146,0.025,0.296,0.038,0.445,0.038c1.446,0,2.623-1.176,2.623-2.623
		C105.116,3.157,103.939,1.98,102.493,1.98z"/>
	<path fill="#CB4781" d="M105.298,4.386c-0.084,0-0.165-0.044-0.208-0.122c-0.127-0.221-0.572-0.83-0.944-0.725
		c-0.084,0.023-0.17,0.051-0.257,0.078c-0.586,0.184-1.316,0.413-2.055-0.206c-0.896-0.751-1.353-0.421-1.616-0.108
		c-0.086,0.101-0.235,0.114-0.337,0.029s-0.115-0.236-0.029-0.337c0.346-0.409,1.102-0.946,2.29,0.051
		c0.537,0.449,1.056,0.287,1.604,0.114c0.092-0.028,0.183-0.057,0.271-0.082c0.797-0.223,1.42,0.829,1.488,0.949
		c0.068,0.116,0.026,0.262-0.088,0.327C105.379,4.376,105.338,4.386,105.298,4.386z"/>
	<path fill="#CB4781" d="M97.403,19.644c-0.03,0-0.06-0.006-0.089-0.018c-0.123-0.049-0.183-0.189-0.133-0.312
		c0.808-2.013,1.435-2.789,1.51-2.877c0.304-0.406,0.64-0.702,0.994-1.015c0.635-0.562,1.292-1.144,1.842-2.457
		c0.83-1.978-0.009-3.98-0.019-4c-0.052-0.121,0.005-0.262,0.126-0.314c0.121-0.052,0.263,0.004,0.313,0.126
		c0.038,0.089,0.928,2.211,0.022,4.373c-0.594,1.414-1.324,2.062-1.969,2.631c-0.337,0.298-0.654,0.58-0.933,0.948
		c-0.003,0.006-0.007,0.01-0.011,0.014c-0.005,0.007-0.626,0.74-1.434,2.75C97.588,19.587,97.498,19.644,97.403,19.644z"/>
	<path fill="#CB4781" d="M98.984,13.225c-0.381,0-0.69-0.311-0.69-0.691c0-0.382,0.31-0.691,0.69-0.691
		c0.383,0,0.692,0.31,0.692,0.691C99.677,12.914,99.367,13.225,98.984,13.225z M98.984,12.319c-0.117,0-0.213,0.098-0.213,0.214
		s0.096,0.212,0.213,0.212c0.118,0,0.213-0.096,0.213-0.212S99.103,12.319,98.984,12.319z"/>
	<path fill="#CB4781" d="M98.301,13.677c-0.102,0-0.194-0.064-0.228-0.166c-0.261-0.795,0.357-1.477,0.384-1.506
		c0.727-0.796,1.695-0.422,1.736-0.405c0.122,0.049,0.183,0.188,0.133,0.311c-0.049,0.123-0.188,0.182-0.31,0.134
		c-0.033-0.013-0.708-0.263-1.208,0.284c-0.004,0.007-0.452,0.509-0.281,1.034c0.041,0.125-0.027,0.261-0.153,0.302
		C98.351,13.672,98.324,13.677,98.301,13.677z"/>
	<path fill="#CB4781" d="M95.98,21.048c-0.131,0-0.239-0.107-0.239-0.239c0-0.133,0.108-0.239,0.239-0.239
		c0.938,0,1.133-0.331,1.144-0.864c0.004-0.218-0.112-0.428-0.327-0.592c-0.019-0.014-0.539-0.4-0.53-1.061
		c0.008-0.58,0.16-1.012,0.167-1.029c0.045-0.124,0.183-0.188,0.307-0.145c0.123,0.046,0.188,0.183,0.145,0.307
		c-0.002,0.004-0.134,0.378-0.14,0.872c-0.005,0.41,0.335,0.67,0.339,0.673c0.337,0.257,0.526,0.615,0.519,0.983
		C97.585,20.611,97.055,21.048,95.98,21.048z"/>
	<path fill="#CB4781" d="M96.525,20.132c-0.116,0-0.217-0.082-0.236-0.198c-0.04-0.251,0.068-0.763,0.77-0.9
		c0.129-0.025,0.254,0.059,0.279,0.188c0.027,0.131-0.059,0.256-0.188,0.282c-0.389,0.076-0.395,0.295-0.388,0.359
		c0.014,0.129-0.075,0.249-0.204,0.268C96.546,20.131,96.536,20.132,96.525,20.132z"/>
	<path fill="#CB4781" d="M95.988,9.948c-0.133,0-0.24-0.107-0.24-0.239l0,0c0-0.001,0-0.001,0-0.001l-0.007-4.523
		c0-0.08,0.04-0.154,0.106-0.199c0.07-0.048,1.768-1.164,3.962,0.333c0.109,0.075,0.139,0.223,0.064,0.333s-0.224,0.137-0.333,0.063
		c-0.594-0.404-1.142-0.594-1.619-0.662c-0.236,0.342-1.694,2.53-1.694,4.658C96.228,9.841,96.119,9.948,95.988,9.948L95.988,9.948z
		 M96.221,5.32l0.003,1.971c0.37-1.011,0.865-1.844,1.142-2.268C96.808,5.047,96.402,5.224,96.221,5.32z"/>
	<path fill="#CB4781" d="M97.947,18.38c-0.048,0-0.096-0.013-0.138-0.044c-0.107-0.077-0.133-0.227-0.057-0.334
		c0.03-0.043,3.136-4.3,7.848-2.665c0.125,0.044,0.191,0.181,0.147,0.304c-0.042,0.125-0.18,0.192-0.304,0.148
		c-4.378-1.519-7.274,2.45-7.302,2.491C98.096,18.346,98.022,18.38,97.947,18.38z"/>
	<path fill="#CB4781" d="M97.629,19.205c-0.063,0-0.128-0.026-0.175-0.077c-0.09-0.096-0.085-0.247,0.013-0.338
		c0.039-0.038,4.18-3.822,8.199-0.813c0.105,0.079,0.128,0.229,0.048,0.334c-0.079,0.106-0.229,0.128-0.334,0.049
		c-3.705-2.771-7.548,0.745-7.588,0.78C97.745,19.184,97.688,19.205,97.629,19.205z"/>
	<path fill="#CB4781" d="M104.619,22.314c-0.092,0-0.181-0.054-0.22-0.146c-0.634-1.479-1.551-2.425-2.723-2.813
		c-2.029-0.672-4.173,0.548-4.193,0.561c-0.114,0.067-0.261,0.027-0.327-0.087c-0.067-0.113-0.027-0.26,0.087-0.326
		c0.095-0.056,2.354-1.34,4.584-0.603c1.308,0.435,2.321,1.47,3.013,3.08c0.052,0.122-0.005,0.263-0.125,0.314
		C104.683,22.309,104.651,22.314,104.619,22.314z"/>
</g>
<g>
	<path fill="#CB4781" d="M12.014,19.416h-0.146c-0.141,0-0.254-0.113-0.254-0.254s0.113-0.255,0.254-0.255h0.146
		c0.156,0,0.239-0.155,0.24-0.157c0.448-0.857,0.989-0.912,1.28-0.941c0.04-0.004,0.096-0.009,0.113-0.015
		c0.029-0.011,0.044-0.088,0.044-0.125c0-0.07-0.088-0.116-0.089-0.116c-0.403-0.22-1.382-0.248-1.726-0.242
		c-0.142,0.011-0.257-0.108-0.26-0.248c-0.002-0.143,0.109-0.258,0.25-0.26c0.14-0.003,1.378-0.018,1.961,0.293
		c0.143,0.068,0.373,0.262,0.373,0.568c0.006,0.17-0.068,0.5-0.385,0.609c-0.074,0.026-0.15,0.034-0.231,0.043
		c-0.248,0.023-0.558,0.054-0.876,0.663C12.63,19.139,12.393,19.416,12.014,19.416z"/>
	<path fill="#CB4781" d="M10.085,17.918c-0.128,0-0.238-0.096-0.252-0.226c-0.008-0.074-0.195-1.843,0.819-3.754
		c0.065-0.125,0.22-0.172,0.343-0.106c0.124,0.066,0.171,0.22,0.105,0.344c-0.941,1.774-0.764,3.442-0.762,3.459
		c0.016,0.141-0.084,0.266-0.224,0.281C10.104,17.918,10.095,17.918,10.085,17.918z"/>
	<path fill="#CB4781" d="M9.958,21.061c-0.063,0-0.126-0.003-0.19-0.006c-1.246-0.078-2.232-1.193-2.159-2.438
		c0.001-0.104,0.035-0.861,0.688-1.645c0.64-0.767,1.167-1.551,1.127-3.348c-0.022-0.595-0.23-2.238-0.914-2.647
		c-0.121-0.073-0.16-0.229-0.087-0.35c0.073-0.121,0.229-0.159,0.35-0.087c1.041,0.625,1.151,2.82,1.161,3.069
		c0.043,1.974-0.564,2.871-1.245,3.689c-0.562,0.673-0.57,1.319-0.57,1.325c-0.062,0.989,0.71,1.861,1.683,1.923
		c0.51,0.031,0.991-0.091,1.354-0.345c0.257-0.178,0.571-0.507,0.605-1.055c0.009-0.141,0.13-0.248,0.27-0.237
		c0.14,0.008,0.246,0.129,0.238,0.269c-0.037,0.585-0.329,1.098-0.822,1.441C11.035,20.906,10.512,21.061,9.958,21.061z"/>
	<path fill="#CB4781" d="M12.162,19.416h-0.146c-0.379,0-0.617-0.277-0.697-0.443c-0.315-0.603-0.625-0.633-0.873-0.656
		c-0.081-0.009-0.157-0.017-0.23-0.043c-0.317-0.109-0.391-0.439-0.385-0.618c0-0.299,0.23-0.491,0.374-0.56
		c0.582-0.311,1.821-0.297,1.96-0.293c0.14,0.002,0.251,0.117,0.249,0.26c-0.003,0.14-0.119,0.259-0.259,0.248
		c-0.345-0.006-1.323,0.022-1.714,0.235c-0.005,0.002-0.01,0.005-0.016,0.009l0,0c0,0-0.085,0.046-0.085,0.109
		c-0.001,0.042,0.015,0.119,0.043,0.13c0.017,0.006,0.074,0.011,0.114,0.015c0.291,0.029,0.832,0.084,1.277,0.935
		c0.004,0.012,0.087,0.164,0.243,0.164h0.146c0.14,0,0.254,0.114,0.254,0.255S12.302,19.416,12.162,19.416z"/>
	<path fill="#CB4781" d="M13.965,17.918c-0.01,0-0.02,0-0.029-0.002c-0.14-0.016-0.24-0.141-0.225-0.281l0,0
		c0.001-0.017,0.174-1.692-0.763-3.459c-0.066-0.124-0.019-0.277,0.105-0.344c0.124-0.065,0.278-0.019,0.344,0.106
		c1.014,1.911,0.827,3.68,0.818,3.754C14.202,17.822,14.092,17.918,13.965,17.918z"/>
	<path fill="#CB4781" d="M8.117,12.609c-0.623,0-1.13-0.508-1.13-1.131c0-0.321,0.137-0.627,0.376-0.841
		c0.208-0.186,0.475-0.288,0.753-0.288c0.623,0,1.13,0.507,1.13,1.129C9.247,12.102,8.74,12.609,8.117,12.609z M8.117,10.857
		c-0.153,0-0.3,0.056-0.414,0.158c-0.132,0.119-0.207,0.288-0.207,0.463c0,0.343,0.279,0.623,0.621,0.623
		c0.343,0,0.622-0.279,0.622-0.623C8.739,11.136,8.46,10.857,8.117,10.857z"/>
	<path fill="#CB4781" d="M2.665,13.533c-0.13,0-0.24-0.098-0.253-0.23c-0.013-0.139,0.089-0.264,0.229-0.276
		c2.198-0.208,2.486-0.547,3.064-1.586c0.71-1.279,2.371-1.098,2.441-1.09c0.139,0.016,0.239,0.144,0.222,0.283
		c-0.016,0.14-0.142,0.238-0.281,0.223c-0.019-0.002-1.395-0.146-1.938,0.831c-0.701,1.262-1.21,1.634-3.46,1.846
		C2.681,13.533,2.673,13.533,2.665,13.533z"/>
	<path fill="#CB4781" d="M3.147,6.957c-0.04,0-0.08-0.01-0.117-0.029C1.792,6.28,1.248,4.827,1.79,3.618
		c0.253-0.563,0.704-0.98,1.27-1.176C3.67,2.229,4.357,2.296,4.993,2.628c0.389,0.204,0.73,0.496,0.99,0.846
		c0.083,0.113,0.06,0.271-0.054,0.355C5.816,3.913,5.657,3.89,5.573,3.777C5.36,3.488,5.077,3.247,4.757,3.079
		C4.248,2.812,3.703,2.756,3.225,2.921c-0.431,0.15-0.776,0.471-0.971,0.905C1.822,4.79,2.266,5.955,3.266,6.477
		C3.39,6.542,3.438,6.695,3.373,6.82C3.327,6.907,3.239,6.957,3.147,6.957z"/>
	<path fill="#CB4781" d="M3.749,5.836c-0.037,0-0.074-0.008-0.11-0.025C3.262,5.63,2.995,5.287,2.924,4.892
		c-0.056-0.309,0.016-0.606,0.2-0.839c0.183-0.231,0.454-0.368,0.763-0.385C4.306,3.646,4.725,3.852,4.98,4.208
		C5.062,4.322,5.036,4.48,4.922,4.562C4.809,4.645,4.649,4.618,4.567,4.505C4.415,4.292,4.16,4.163,3.915,4.175
		C3.753,4.184,3.613,4.252,3.522,4.368C3.429,4.486,3.395,4.64,3.424,4.802c0.041,0.231,0.208,0.442,0.435,0.55
		c0.126,0.061,0.181,0.213,0.12,0.339C3.934,5.782,3.844,5.836,3.749,5.836z"/>
	<circle fill="#CB4781" cx="10.337" cy="5.63" r="0.494"/>
	<circle fill="#CB4781" cx="9.885" cy="3.456" r="0.494"/>
	<circle fill="#CB4781" cx="7.907" cy="4.812" r="0.494"/>
	<circle fill="#CB4781" cx="6.156" cy="6.479" r="0.494"/>
	<circle fill="#CB4781" cx="4.546" cy="8.738" r="0.494"/>
	<circle fill="#CB4781" cx="8.027" cy="7.433" r="0.494"/>
	<circle fill="#CB4781" cx="4.405" cy="14.53" r="0.494"/>
	<circle fill="#CB4781" cx="5.676" cy="16.393" r="0.494"/>
	<circle fill="#CB4781" cx="18.274" cy="16.393" r="0.494"/>
	<path fill="#CB4781" d="M10.505,7.361c0.143,0.111-0.285,0.487-0.709,1.033C9.372,8.938,9.113,9.446,8.971,9.335
		C8.827,9.224,8.872,8.548,9.294,8.004C9.719,7.458,10.362,7.25,10.505,7.361z"/>
	<path fill="#CB4781" d="M14.05,21.061c-0.554,0-1.077-0.154-1.487-0.44c-0.494-0.344-0.786-0.856-0.822-1.441
		c-0.009-0.14,0.097-0.261,0.237-0.269c0.14-0.011,0.261,0.097,0.27,0.237c0.035,0.548,0.349,0.877,0.606,1.055
		c0.363,0.254,0.844,0.376,1.354,0.345c0.974-0.062,1.744-0.934,1.683-1.906c0-0.006,0-0.011,0-0.018
		c0-0.005-0.008-0.651-0.569-1.324c-0.681-0.818-1.289-1.716-1.246-3.686c0.01-0.253,0.121-2.448,1.162-3.073
		c0.121-0.072,0.277-0.034,0.349,0.087c0.072,0.121,0.033,0.277-0.088,0.35c-0.684,0.41-0.892,2.052-0.914,2.651
		c-0.04,1.793,0.487,2.577,1.128,3.344c0.652,0.783,0.686,1.54,0.687,1.645c0.074,1.245-0.914,2.36-2.159,2.438
		C14.176,21.058,14.113,21.061,14.05,21.061z"/>
	<path fill="#CB4781" d="M15.891,12.609c-0.623,0-1.13-0.508-1.13-1.131c0-0.622,0.507-1.129,1.13-1.129
		c0.279,0,0.546,0.103,0.754,0.288c0.239,0.214,0.376,0.521,0.376,0.841C17.021,12.102,16.514,12.609,15.891,12.609z M15.891,10.857
		c-0.343,0-0.622,0.278-0.622,0.621c0,0.343,0.278,0.623,0.622,0.623c0.343,0,0.621-0.279,0.621-0.623
		c0-0.175-0.075-0.344-0.207-0.463C16.191,10.913,16.043,10.857,15.891,10.857z"/>
	<path fill="#CB4781" d="M21.343,13.533c-0.008,0-0.016,0-0.024-0.001c-2.25-0.212-2.76-0.584-3.46-1.846
		c-0.543-0.978-1.924-0.833-1.938-0.831c-0.139,0.015-0.266-0.084-0.282-0.223c-0.016-0.14,0.083-0.267,0.223-0.283
		c0.07-0.008,1.731-0.189,2.441,1.09c0.578,1.04,0.866,1.378,3.064,1.586c0.14,0.013,0.243,0.138,0.229,0.276
		C21.583,13.436,21.472,13.533,21.343,13.533z"/>
	<path fill="#CB4781" d="M12.585,22.185h-1.163c-1.798,0-2.646-0.77-3.631-1.661c-0.336-0.305-0.685-0.62-1.099-0.933
		c-2.796-2.109-4.534-5.315-4.534-8.366c0-5.507,3.97-9.662,9.236-9.662h1.22c5.265,0,9.234,4.154,9.234,9.662
		c0,3.05-1.737,6.256-4.534,8.366c-0.415,0.312-0.762,0.628-1.098,0.933C15.232,21.415,14.382,22.185,12.585,22.185z M11.395,2.072
		c-4.976,0-8.727,3.935-8.727,9.153c0,2.894,1.659,5.945,4.332,7.959c0.433,0.327,0.79,0.65,1.135,0.963
		c0.943,0.854,1.688,1.528,3.289,1.528h1.163c1.601,0,2.346-0.674,3.29-1.528c0.344-0.312,0.701-0.636,1.134-0.963
		c2.672-2.015,4.332-5.065,4.332-7.959c0-5.218-3.752-9.153-8.727-9.153H11.395z"/>
	<path fill="#CB4781" d="M20.86,6.957c-0.091,0-0.18-0.05-0.225-0.137c-0.065-0.125-0.017-0.278,0.107-0.343
		c1-0.521,1.444-1.687,1.012-2.651c-0.195-0.434-0.54-0.755-0.971-0.905c-0.478-0.165-1.022-0.109-1.533,0.158
		c-0.32,0.168-0.603,0.409-0.816,0.698c-0.083,0.113-0.243,0.136-0.356,0.053c-0.113-0.084-0.136-0.242-0.053-0.355
		c0.259-0.35,0.602-0.643,0.989-0.846c0.635-0.333,1.323-0.399,1.935-0.187c0.564,0.196,1.016,0.613,1.268,1.176
		c0.542,1.209-0.002,2.663-1.239,3.31C20.94,6.947,20.9,6.957,20.86,6.957z"/>
	<path fill="#CB4781" d="M20.26,5.836c-0.095,0-0.186-0.054-0.23-0.146c-0.061-0.125-0.007-0.278,0.12-0.339
		c0.227-0.108,0.393-0.319,0.435-0.55c0.03-0.162-0.005-0.316-0.099-0.434c-0.091-0.116-0.23-0.185-0.392-0.193
		c-0.241-0.014-0.5,0.116-0.653,0.33c-0.082,0.115-0.241,0.14-0.355,0.057c-0.114-0.082-0.14-0.24-0.058-0.354
		c0.256-0.356,0.677-0.563,1.094-0.541c0.309,0.017,0.579,0.153,0.762,0.385c0.185,0.233,0.256,0.531,0.201,0.839
		c-0.071,0.396-0.338,0.739-0.716,0.919C20.333,5.828,20.296,5.836,20.26,5.836z"/>
	<circle fill="#CB4781" cx="14.123" cy="3.456" r="0.494"/>
	<circle fill="#CB4781" cx="16.1" cy="4.812" r="0.494"/>
	<circle fill="#CB4781" cx="17.852" cy="6.479" r="0.495"/>
	<circle fill="#CB4781" cx="19.462" cy="8.738" r="0.495"/>
	<circle fill="#CB4781" cx="15.98" cy="7.433" r="0.494"/>
	<circle fill="#CB4781" cx="19.603" cy="14.53" r="0.494"/>
	<path fill="#CB4781" d="M13.503,7.361c-0.143,0.111,0.285,0.487,0.709,1.033c0.424,0.544,0.683,1.052,0.826,0.941
		s0.1-0.787-0.325-1.331C14.289,7.458,13.646,7.25,13.503,7.361z"/>
</g>
</svg>
